<?xml version="1.0" standalone="no"?>
<!DOCTYPE svg PUBLIC "-//W3C//DTD SVG 20010904//EN"
 "http://www.w3.org/TR/2001/REC-SVG-20010904/DTD/svg10.dtd">
<svg version="1.0" xmlns="http://www.w3.org/2000/svg"
 width="128.000000pt" height="128.000000pt" viewBox="0 0 128.000000 128.000000"
 preserveAspectRatio="xMidYMid meet">
<metadata>
Created by potrace 1.14, written by Peter Selinger 2001-2017
</metadata>
<g transform="translate(0.000000,128.000000) scale(0.100000,-0.100000)"
fill="#000000" stroke="none">
<path d="M600 1143 c-22 -9 -48 -45 -55 -75 -9 -38 22 -99 57 -112 17 -6 26
-16 23 -24 -3 -8 -5 -18 -5 -23 0 -5 -9 -9 -20 -9 -23 0 -65 -17 -102 -42 -24
-16 -28 -17 -42 -3 -12 12 -13 22 -5 42 13 34 -5 86 -38 113 -63 50 -162 1
-163 -80 0 -72 71 -124 135 -100 18 7 28 5 40 -7 14 -13 14 -17 1 -32 -18 -20
-46 -88 -46 -111 0 -19 -21 -32 -36 -22 -5 4 -17 19 -26 33 -39 61 -141 60
-173 -1 -35 -68 -2 -141 71 -156 31 -6 94 17 94 34 0 16 40 51 53 46 7 -2 19
-25 25 -51 7 -25 21 -58 32 -73 16 -22 17 -30 7 -44 -10 -14 -18 -15 -39 -7
-60 23 -138 -29 -138 -91 0 -65 44 -108 108 -108 60 0 109 69 92 129 -6 24 -5
35 7 46 13 14 17 14 32 1 20 -18 88 -46 111 -46 28 0 32 -28 8 -48 -60 -49
-76 -79 -64 -125 11 -44 43 -70 94 -75 41 -4 51 -1 75 24 56 56 45 130 -26
170 -8 5 -17 18 -19 28 -2 15 6 22 42 31 25 7 60 21 79 33 44 27 65 11 51 -38
-17 -61 31 -130 92 -130 94 0 144 106 79 171 -16 16 -37 30 -45 30 -9 1 -22 2
-28 3 -7 1 -22 -1 -33 -5 -12 -4 -28 -1 -40 7 -16 12 -17 16 -4 31 24 30 37
59 44 96 10 49 38 55 65 13 19 -32 56 -56 86 -56 30 0 81 31 93 56 28 62 -3
135 -65 150 -36 9 -94 -15 -112 -47 -18 -30 -51 -45 -56 -26 -18 66 -33 103
-48 122 -16 21 -17 25 -3 39 11 10 23 13 38 8 12 -5 28 -7 35 -6 6 1 19 2 28
3 8 0 29 14 45 30 65 65 16 171 -79 171 -65 0 -118 -84 -90 -142 5 -11 2 -22
-8 -32 -14 -15 -18 -15 -42 2 -36 24 -79 42 -101 42 -10 0 -21 9 -24 20 -4 15
2 24 24 35 31 17 59 61 59 96 0 30 -39 86 -65 93 -25 7 -65 6 -85 -1z m76 -41
c39 -26 35 -94 -6 -107 -55 -18 -103 31 -79 78 15 27 28 37 54 37 11 0 25 -4
31 -8z m-284 -129 c22 -20 24 -66 2 -87 -23 -24 -70 -20 -88 6 -21 30 -20 54
4 78 24 24 57 26 82 3z m589 -4 c27 -27 22 -69 -12 -88 -60 -34 -120 30 -78
84 25 31 61 33 90 4z m-245 -128 c109 -50 164 -181 119 -287 l-15 -36 -36 32
c-20 17 -47 36 -60 42 -22 10 -22 12 -8 41 33 62 -9 134 -83 144 -76 10 -135
-75 -99 -144 14 -29 14 -31 -8 -41 -13 -6 -40 -25 -60 -42 l-36 -32 -16 38
c-24 58 -15 141 22 200 56 92 182 130 280 85z m-50 -126 c26 -27 26 -55 -1
-84 -20 -21 -66 -17 -86 8 -22 26 -17 60 12 84 29 23 45 22 75 -8z m-408 -42
c6 -9 12 -27 12 -40 0 -29 -36 -67 -57 -59 -8 3 -18 6 -23 6 -17 0 -40 32 -40
55 0 54 75 80 108 38z m809 13 c43 -14 42 -84 -2 -104 -63 -29 -115 48 -66 97
20 20 29 21 68 7z m-361 -135 c40 -18 74 -54 74 -77 0 -23 -101 -64 -155 -64
-35 0 -68 8 -103 26 -58 29 -65 49 -29 81 60 55 139 67 213 34z m-332 -167
c25 -24 20 -71 -9 -90 -55 -36 -117 25 -81 80 19 30 65 35 90 10z m590 -6 c31
-43 9 -90 -42 -94 -56 -4 -86 61 -46 100 23 24 70 20 88 -6z m-294 -118 c36
-36 6 -100 -46 -100 -21 0 -53 22 -55 38 0 4 -2 15 -4 25 -5 25 29 57 60 57
14 0 34 -9 45 -20z"/>
</g>
</svg>
