<?xml version="1.0" encoding="utf-8"?>
<!-- Generator: Adobe Illustrator 22.0.1, SVG Export Plug-In . SVG Version: 6.00 Build 0)  -->
<svg version="1.1" id="Layer_1" xmlns="http://www.w3.org/2000/svg" xmlns:xlink="http://www.w3.org/1999/xlink" x="0px" y="0px"
	 viewBox="0 0 279.4 34.8" width="279.4" height="34.8" style="enable-background:new 0 0 279.4 34.8;" xml:space="preserve">
<style type="text/css">
	.st0{fill:#807F83;}
	.st1{fill:#F58023;}
</style>
<path class="st0" d="M91.7,9.6c4.9,0,7.8,3.2,7.8,7.8c0,1.7-0.6,4.1-1.4,7c-0.6,2.4-1.1,4.3-1.1,5.3c0,1.4,0.6,1.9,2,2.1
	c0.1,0-0.4,2.9-4.2,2.9c-3.2,0-4.8-1.7-4.8-4.2c0-1.4,0.4-3.2,1.2-5.9c0.6-2.3,1.1-4.1,1.1-5.2c0-2.5-1.4-3.9-3.9-3.9
	c-2.4,0-4,1.1-5.5,3.5L80.2,31c-0.5,2.5-1.4,3.3-3.2,3.3h-0.7c-1.9,0-3.5-0.7-3-3.3l4.4-20.6c0-0.1,0.8-0.4,1.9-0.4
	c2,0,3.9,1,3.8,4.3C85.4,11.3,88.2,9.6,91.7,9.6"/>
<path class="st0" d="M112.4,20.2c6.7,0,8.6-1.5,8.6-3.4c0-1.3-1.3-2.6-3.9-2.6c-3.6,0-6.6,2.5-8,5.8
	C110.3,20.1,111.4,20.2,112.4,20.2 M108.1,24.4c0,3.3,2.1,5.4,5.8,5.4c3.2,0,5.5-1.4,7.1-3.5c0.1-0.1,2.9,0.3,2.9,2.6
	c0,1.3-0.4,2-1.3,2.9c-1.8,1.8-4.7,2.8-8.8,2.8c-7.9,0-11.6-4.3-11.6-10.2c0-8.7,6.7-15,15.1-15c6.1,0,9.5,2.8,9.5,7
	c0,4.9-3.1,7.9-13.8,7.9c-1.5,0-3.1-0.1-4.9-0.2V24.4z"/>
<path class="st0" d="M130.8,25.7l2.1-10.1h-1.2c-1.6,0-2.5-0.7-2.5-1.8c0-0.7,0.3-2.2,1-2.8c0.5-0.5,1-0.7,2.4-0.7h1.4l0.3-1.4
	c0.7-3.5,2.1-5,5.2-5c1.5,0,2.6,0.6,2.6,0.8l-1.2,5.5h4c1.7,0,2.6,0.7,2.6,1.8c0,0.7-0.3,2.2-1,2.9c-0.4,0.4-1,0.7-2.4,0.7h-4.5
	l-2.1,9.8c-0.6,2.9,0.3,4.1,2.3,4.1c1.2,0,2.3-0.6,2.9-1.2c0.2-0.1,1.1,0.6,1.1,2.1c0,1-0.4,1.9-1.2,2.7c-1.1,1.1-2.8,1.7-5.1,1.7
	C132.1,34.8,129.5,31.5,130.8,25.7"/>
<path class="st0" d="M152.7,31.6l-0.4-13.7c-0.1-3.5-1.3-4.5-3.3-4.7c-0.2,0,0.2-3.4,4.2-3.4c1.5,0,2.6,0.4,3.4,1.2
	c1.2,1.2,1.8,3.5,1.7,6.8l-0.1,9l5.8-12c0.9-1.9,2-2.3,3.8-2.3c2.4,0,3.7,0.8,3.8,3l0.8,11.3l7.9-17c0-0.1,4.6-0.1,4.7,3.1
	c0.1,0.9-0.2,1.7-1.1,3.2l-8.5,16.1c-0.9,1.6-2.1,2-3.9,2c-2.4,0-3.3-0.8-3.5-2.7l-1.3-11.1l-6.4,11.8c-0.9,1.6-2,2-3.7,2
	C153.7,34.4,152.8,33.4,152.7,31.6"/>
<path class="st0" d="M204.1,20.9c0-3.5-2.4-6-5.6-6c-4.3,0-7.3,4.1-7.3,8.6c0,3.4,2.4,6,5.6,6C201,29.5,204.1,25.3,204.1,20.9
	 M185.1,23.7c0-7.3,5.2-14.1,13.6-14.1c7.2,0,11.5,4.8,11.5,11c0,7.3-5.2,14.1-13.6,14.1C189.4,34.7,185.1,30,185.1,23.7"/>
<path class="st0" d="M228.6,9.6c2.4,0,4.3,1.4,4.3,3.4c0,3.4-3,4.5-3.1,4.4c-0.7-0.7-1.7-1.4-3.3-1.4c-3.1,0-5.1,3.4-6.1,8.5
	l-1.4,6.6c-0.5,2.5-1.4,3.3-3.2,3.3H215c-1.9,0-3.5-0.7-3-3.3l4.4-20.6c0-0.1,0.8-0.4,1.9-0.4c2,0,3.9,1,3.8,4.2
	C223.6,11.3,225.8,9.6,228.6,9.6"/>
<path class="st0" d="M244.3,29.1l-3.4-6.3c0,0-1.7,8.3-1.7,8.3c-0.5,2.5-1.4,3.3-3.2,3.3h-0.7c-1.9,0-3.5-0.7-3-3.3l5.8-27.7
	c0.5-2.5,1.5-3.3,3.2-3.3h0.8c1.8,0,3.5,0.8,2.9,3.3l-3.5,16.5l11.5-10.3c0.1-0.1,3.7,0.5,3.7,3.5c0,1.2-0.7,2.3-2.1,3.4l-7.4,5.9
	l2.7,4.4c1.7,3.1,2.5,3.7,4.6,3.8c0.2,0,0.1,4-4.1,4C247.6,34.6,246.6,33.3,244.3,29.1"/>
<path class="st0" d="M257.8,31.6c-0.8-0.8-1.4-1.8-1.4-2.8c0-2.1,2.2-3.2,2.4-3c1.7,2.2,4.7,4.1,8,4.1c2.4,0,3.7-1,3.7-2.4
	c0-1.3-1.4-1.9-3.9-2.8c-3.3-1.3-7-2.7-7-7.1c0-4.6,3.6-7.9,9.8-7.9c3.9,0,7,1.3,8.8,3c0.8,0.8,1.2,1.7,1.2,2.7
	c0,2.3-2.4,3.4-2.6,3.1c-1.5-2.2-4.2-4-7.2-4c-2.4,0-3.6,1.1-3.6,2.4c0,1.4,1.5,2,4.3,3c3.6,1.4,7.2,2.9,7.2,7
	c0,4.6-3.6,7.7-10.1,7.7C262.9,34.7,259.5,33.3,257.8,31.6"/>
<path class="st1" d="M33.4,27.2c-1.1,1.8-1.6,2.7-1.6,3.9c0,3.5,5,3.4,5.1,3.2l3.8-6.9c-2.4-0.1-4.6-0.5-6.8-1.1L33.4,27.2z"/>
<path class="st1" d="M53,25.3l0.1,0.7l0.9,5c0.3,2.3,1.5,3.4,3.3,3.4c2.1,0,4.2-1.7,4.1-2.3l-2-10.2C57.5,23.2,55.4,24.4,53,25.3"/>
<path class="st1" d="M26,27.8H11.7l1-4.8c-0.3,0-0.5,0.1-0.8,0.1c-2.3,0.3-4.6,0.9-6.7,1.7l-1,4.7C3.5,32.6,4.9,34,7.8,34H25
	c1.6,0,2.2-0.2,2.8-0.8c0.8-0.8,1.2-2.5,1.2-3.4C29,28.6,28,27.8,26,27.8"/>
<path class="st1" d="M45.3,19.2l5.4-9.9l1.4,9.6C49.8,19.1,47.5,19.2,45.3,19.2 M64.9,14.3c-1.9,1.2-4,2.2-6.3,2.9L56.2,4.4
	c-0.2-1.3-1.2-2.2-4.4-2.2c-2.8,0-3.8,0.7-4.6,2l-8.4,14c-1.5-0.4-2.9-0.8-4.3-1.4l0,0c-4.8-2-10.3-3.1-15.8-2.3
	c-0.1,0-0.2,0-0.4,0.1c-1.3,0.2-2.6,0.5-3.8,0.8l0.1-0.4l1.4-6.3h14.3c1.6,0,2.2-0.2,2.8-0.8C33.7,7.2,34,5.4,34,4.6
	c0-1.4-1-2.1-3-2.1H13.6c-2.4,0-3.9,1.2-4.5,3.7L6.4,19.1C4,20.7,1.9,22.5,0,24.6l0,0c3.5-2,7.5-3.4,11.8-4
	c6.3-0.9,12.4-0.3,17.8,1.9h0c4.9,2,10.5,3.1,16.3,2.2C53.7,23.5,60.3,19.6,64.9,14.3L64.9,14.3z"/>
</svg>
