<?xml version="1.0" encoding="UTF-8"?>
<svg xmlns="http://www.w3.org/2000/svg" id="Layer_2" viewBox="0 0 751.65 390.33">
  <defs>
    <style>.cls-1{fill:#004b9b;}.cls-2{fill:#ef6a2c;}</style>
  </defs>
  <g id="Layer_1-2">
    <g>
      <g>
        <path class="cls-2" d="m663.3,8.51s40.39,57.94,28.81,90.02c0,0,18.65-9.36,25.53-4.04,0,0-.88,38.63-12.61,52.49,0,0,44.51-55.52,40.69-78.94,0,0-13.19-8.68-35.05.55,0,0,4.74-34.52-47.39-60.08Z"></path>
        <path class="cls-2" d="m544.25,40.62s71.08-5.52,93.46,20.4c0,0,1.12-20.6,9.22-23.81,0,0,33.49,20.06,39.79,37.01,0,0-26.49-65.78-48.99-74.21,0,0-14.23,6.91-17.04,30.19,0,0-27.96-21.32-76.44,10.43Z"></path>
        <path class="cls-2" d="m514.74,161.13s30.69-63.46,64.66-69.61c0,0-17.53-11.25-16.32-19.78,0,0,34.37-18.57,52.4-15.47,0,0-71.02-10.26-89.67,4.71,0,0-1.04,15.62,18,29.66,0,0-32.7,13.22-29.07,70.49Z"></path>
        <path class="cls-2" d="m604.88,247.39s-40.38-57.94-28.81-90.02c0,0-18.66,9.35-25.53,4.04,0,0,.87-38.64,12.6-52.48,0,0-44.51,55.51-40.68,78.92,0,0,13.19,8.69,35.03-.54,0,0-4.73,34.53,47.39,60.07Z"></path>
        <path class="cls-2" d="m723.33,210.63s-71,6.46-93.73-19.16c0,0-.86,20.6-8.9,23.94,0,0-33.76-19.62-40.31-36.46,0,0,27.4,65.4,49.99,73.54,0,0,14.14-7.11,16.64-30.41,0,0,28.25,20.94,76.3-11.44Z"></path>
        <path class="cls-2" d="m750.4,93.9s-30.7,63.44-64.67,69.6c0,0,17.54,11.25,16.32,19.78,0,0-34.37,18.55-52.4,15.48,0,0,71.01,10.27,89.66-4.73,0,0,1.03-15.61-18-29.65,0,0,32.7-13.21,29.08-70.48Z"></path>
      </g>
      <g>
        <path class="cls-1" d="m2.37,275.43h23.74l46.57,81.87h.3v-81.87h20.86v112.61h-23.29l-47.02-81.88h-.3v81.88H2.37v-112.61Z"></path>
        <path class="cls-1" d="m104.57,275.43h60.58v19.48h-39.72v27.54h38.04v19.48h-38.04v26.63h39.72v19.48h-60.58v-112.61Z"></path>
        <path class="cls-1" d="m196.18,294.91h-20.85v-19.48h62.7l5.46,19.48h-26.46v93.13h-20.85v-93.13Z"></path>
        <path class="cls-1" d="m249.09,275.43h21.31l19.47,78.68h.31l19.33-78.68h15.2l18.88,78.68h.3l19.64-78.68h21.3l-32.72,112.61h-16.59l-18.25-74.42h-.31l-18.57,74.42h-16.44l-32.87-112.61Z"></path>
        <path class="cls-1" d="m443.79,273.15c31.96,0,58.91,25.57,58.91,58.9s-26.49,58.29-58.91,58.29-58.9-26.03-58.9-58.29,26.95-58.9,58.9-58.9Zm0,97.71c21.46,0,38.05-18.11,38.05-38.96s-16.89-39.28-38.05-39.28-38.05,17.66-38.05,39.28,16.6,38.96,38.05,38.96Z"></path>
        <path class="cls-1" d="m513.32,275.43h34.56c12.94,0,20.99,2.44,27.39,7.6,6.39,5.18,13.24,14.31,13.24,27.25,0,7.46-2.74,19.18-10.81,26.94-6.69,6.39-13.08,7.91-18.71,9.28l30.58,41.55h-25.26l-29.82-41.53h-.31v41.53h-20.85v-112.61Zm20.85,53.86h13.41c17.19,0,20.08-11.41,20.08-17.34,0-6.24-3.81-17.04-20.08-17.04h-13.41v34.38Z"></path>
        <path class="cls-1" d="m599.29,275.43h20.85v48.7h.3l35.17-48.7h24.49l-42.46,55.4,42.46,57.21h-24.49l-35.17-49.46h-.3v49.46h-20.85v-112.61Z"></path>
        <path class="cls-1" d="m700.35,355.78c1.07,11.26,8.53,15.07,14.93,15.07,8.21,0,15.53-5.64,15.53-14.16,0-11.56-7.47-13.69-21.47-19.02-8.67-3.35-26.78-8.68-26.78-32.42,0-17.95,13.99-32.11,33.02-32.11,13.09,0,32.26,9.13,33.32,32.11h-21.29c-.92-10.04-7-12.64-12.63-12.64-6.56,0-11.57,4.72-11.57,11.42,0,9.74,7.31,11.86,18.71,15.68,9.29,3.04,29.53,10.19,29.53,34.7s-18.87,35.92-36.53,35.92c-14.46,0-35.46-9.75-36.69-34.55h21.91Z"></path>
      </g>
      <g>
        <g>
          <path class="cls-1" d="m0,139.79h11.75l18.52,98.26,27.01-98.26h10.67l27.01,98.11,27.61-98.11h11.76l-32.19,112.76h-14.81l-24.71-92.46-24.87,92.46h-14.8L0,139.79Z"></path>
          <path class="cls-1" d="m171.26,139.79h12.51l48.37,112.76h-12.2l-16.33-37.84h-52.48l-16.33,37.84h-12.2l48.67-112.76Zm27.92,64.7l-21.67-51.73-21.97,51.73h43.63Z"></path>
          <path class="cls-1" d="m243.89,139.79h11.29v112.76h-11.29v-112.76Z"></path>
          <path class="cls-1" d="m271.93,139.79h29.6c10.52.15,21.06.31,30.21,6.11,9.77,6.1,14.8,16.47,14.8,27.76,0,10.38-4.27,19.84-12.81,26.09-8.7,6.4-18.77,7.32-29.29,7.32h-21.21v45.47h-11.3v-112.76Zm30.68,57.06c7.93,0,15.86-.3,22.73-4.57,6.4-3.97,9.92-11.45,9.92-18.77,0-9.77-5.19-17.4-14.03-21.06-7.48-3.21-15.72-2.44-23.5-2.44h-14.49v46.84h19.38Z"></path>
          <path class="cls-1" d="m380.99,139.79h12.52l48.36,112.76h-12.21l-16.33-37.84h-52.48l-16.33,37.84h-12.21l48.67-112.76Zm27.94,64.7l-21.67-51.73-21.97,51.73h43.64Z"></path>
        </g>
        <rect class="cls-1" x="368.05" y="113.76" width="41.58" height="10.15"></rect>
      </g>
    </g>
  </g>
</svg>
