<?xml version="1.0" encoding="UTF-8"?><svg xmlns="http://www.w3.org/2000/svg" viewBox="0 0 765.35 198.43"><defs><style>.cls-1{fill:#130c0e;}.cls-1,.cls-2{stroke-width:0px;}.cls-2{fill:#fff;}</style></defs><g id="Layer_1"><path class="cls-2" d="M596.67,58.53h-73.52c0,1.13,0,2.25-.03,3.43,0,.5.02,1.2.03,1.89.01.77.02,1.55.02,2.34h75.7c-.18-.64-.36-1.26-.53-1.85-.55-1.94-1.11-3.87-1.67-5.81Z"/><path class="cls-2" d="M491.33,63.97c0-1.79-.07-3.6-.16-5.44h-79.46s-2.17,7.65-2.17,7.65h81.74c.02-.74.04-1.48.04-2.22Z"/><polygon class="cls-2" points="632.41 66.19 683.78 66.19 683.78 58.53 630.22 58.53 632.41 66.19"/><path class="cls-2" d="M172.69,66.19h124.52c.03-.77.05-1.56.06-2.38.03-1.72-.03-3.48-.1-5.28h-124.49v7.66Z"/><polygon class="cls-2" points="378.16 58.54 325.59 58.54 325.59 66.19 376 66.19 378.16 58.54"/><rect class="cls-2" x="715.79" y="58.53" width="44.17" height="7.66"/><rect class="cls-2" x="5.39" y="58.54" width="69.79" height="7.66"/><path class="cls-1" d="M545.6,7.71h-18.09v43.15h18.09V7.71Z"/><path class="cls-1" d="M545.6,73.85h-18.09v43.35c.56,0,1.04,0,1.52,0,22.04-.01,44.09-.03,66.13-.04.04,0,.08-.05.12-.09.04-.03.07-.07.09-.09v-15.39h-49.77v-27.74Z"/><path class="cls-1" d="M515.39,46.58c-.37-2.3-.7-4.61-1.18-6.89-.58-2.76-1.48-5.44-2.47-8.09-1.44-3.86-3.26-7.51-5.82-10.78-2.68-3.43-5.84-6.32-9.66-8.43-5.55-3.08-11.44-5.11-17.77-5.96-3.21-.43-6.42-.48-9.63-.74-1.3-.11-2.63.15-3.95.16-2.99.03-5.93.43-8.87.9-4.76.77-9.27,2.21-13.57,4.39-4.99,2.54-9.11,6.02-12.15,10.73-.71,1.11-1.4,2.23-2.05,3.38-2.02,3.58-3.56,7.37-4.66,11.33-.96,3.47-1.77,6.97-2.09,10.57-.11,1.23-.25,2.46-.38,3.69h18.23c.12-.99.24-1.98.36-2.98.36-3,1.01-5.94,1.87-8.82,1.08-3.62,2.6-7.06,5.04-9.99,1.97-2.37,4.51-4.04,7.35-5.2,2.72-1.11,5.53-1.88,8.47-2.11,1.94-.15,3.89-.3,5.84-.45,3.68.11,7.32.39,10.88,1.34,4.04,1.08,7.67,2.87,10.54,5.99,1.8,1.96,3.11,4.25,4.18,6.67,1.57,3.58,2.54,7.35,3.19,11.18.36,2.11.56,4.25.69,6.38.22,3.7.47,7.41.46,11.11,0,3.31-.24,6.63-.54,9.93-.38,4.22-1.1,8.4-2.41,12.43-1.02,3.15-2.26,6.24-4.36,8.88-1.45,1.82-3.22,3.26-5.21,4.44-2.98,1.76-6.26,2.6-9.65,3.18-3.3.57-6.62.63-9.93.5-4.47-.17-8.81-1.03-12.83-3.08-2.45-1.25-4.57-2.94-6.36-5.09-2.27-2.71-3.65-5.85-4.85-9.11-.99-2.7-1.69-5.49-2.19-8.31-.23-1.29-.35-2.6-.46-3.92h-18.37c.14,1.47.31,2.94.5,4.41.32,2.41.67,4.82,1.25,7.17.6,2.4,1.46,4.74,2.26,7.08,1.39,4.04,3.3,7.8,5.84,11.26,1.99,2.72,4.41,4.96,7.1,6.93,2.58,1.89,5.43,3.25,8.37,4.48,5.18,2.16,10.6,3.37,16.17,3.68,4.34.24,8.7.28,13.05-.18,3.99-.42,7.91-1.13,11.7-2.44,3.99-1.38,7.74-3.3,11.11-5.85,2.42-1.83,4.61-3.94,6.45-6.38,2.13-2.81,3.84-5.87,5.33-9.07,1.13-2.44,2.07-4.94,2.85-7.5,1.09-3.59,1.84-7.24,2.4-10.95.38-2.51.56-5.04.73-7.55.17-2.39.04-4.79.04-7.19.15-5.08-.03-10.15-.84-15.18Z"/><path class="cls-1" d="M321.35,46.58c-.37-2.3-.7-4.61-1.18-6.89-.58-2.76-1.48-5.44-2.47-8.09-1.44-3.86-3.26-7.51-5.82-10.78-2.68-3.43-5.84-6.32-9.66-8.43-5.55-3.08-11.44-5.11-17.77-5.96-3.21-.43-6.42-.48-9.63-.74-1.3-.11-2.63.15-3.95.16-2.99.03-5.93.43-8.87.9-4.76.77-9.27,2.21-13.57,4.39-4.99,2.54-9.11,6.02-12.15,10.73-.71,1.11-1.4,2.23-2.05,3.38-2.02,3.58-3.56,7.37-4.66,11.33-.96,3.47-1.77,6.97-2.09,10.57-.11,1.23-.25,2.46-.38,3.69h18.23c.12-.99.24-1.98.36-2.98.37-3,1.01-5.94,1.87-8.82,1.08-3.62,2.6-7.06,5.04-9.99,1.97-2.37,4.51-4.04,7.35-5.2,2.71-1.11,5.53-1.88,8.47-2.11,1.95-.15,3.89-.3,5.84-.45,3.68.11,7.32.39,10.88,1.34,4.04,1.08,7.67,2.87,10.54,5.99,1.8,1.96,3.11,4.25,4.18,6.67,1.57,3.58,2.54,7.35,3.19,11.18.36,2.11.56,4.25.69,6.38.22,3.7.47,7.41.46,11.11,0,3.31-.24,6.63-.54,9.93-.38,4.22-1.1,8.4-2.41,12.43-1.02,3.15-2.26,6.24-4.36,8.88-1.45,1.82-3.22,3.26-5.21,4.44-2.98,1.76-6.26,2.6-9.65,3.18-3.3.57-6.61.63-9.93.5-4.47-.17-8.81-1.03-12.83-3.08-2.45-1.25-4.57-2.94-6.36-5.09-2.27-2.71-3.65-5.85-4.85-9.11-.99-2.7-1.69-5.49-2.19-8.31-.23-1.29-.35-2.6-.46-3.92h-18.37c.14,1.47.31,2.94.5,4.41.32,2.41.67,4.82,1.25,7.17.59,2.4,1.45,4.74,2.26,7.08,1.39,4.04,3.3,7.8,5.83,11.26,1.99,2.72,4.41,4.96,7.1,6.93,2.58,1.89,5.43,3.25,8.37,4.48,5.18,2.16,10.6,3.37,16.17,3.68,4.34.24,8.7.28,13.05-.18,3.99-.42,7.91-1.13,11.7-2.44,3.99-1.38,7.74-3.3,11.11-5.85,2.42-1.83,4.61-3.94,6.46-6.38,2.13-2.81,3.84-5.87,5.33-9.07,1.13-2.44,2.07-4.94,2.86-7.5,1.09-3.59,1.84-7.24,2.4-10.95.38-2.51.56-5.04.73-7.55.17-2.39.04-4.79.04-7.19.15-5.08-.03-10.15-.84-15.18Z"/><path class="cls-1" d="M61.64,47.88c.37-3,1.01-5.94,1.87-8.82,1.08-3.62,2.6-7.06,5.04-9.99,1.97-2.37,4.51-4.04,7.35-5.2,2.72-1.11,5.53-1.88,8.47-2.11,1.94-.15,3.89-.3,5.84-.45,3.68.11,7.32.39,10.88,1.34,4.04,1.08,7.67,2.87,10.54,5.99,1.8,1.96,3.11,4.25,4.18,6.67.81,1.83,1.45,3.72,1.98,5.64l17.08-5.88c-.37-1.16-.77-2.31-1.2-3.46-1.44-3.86-3.26-7.51-5.82-10.78-2.68-3.43-5.84-6.32-9.66-8.43-5.55-3.08-11.44-5.11-17.77-5.96-3.21-.43-6.42-.48-9.63-.74-1.3-.11-2.63.15-3.95.16-2.99.03-5.93.43-8.87.9-4.76.77-9.27,2.21-13.57,4.39-4.99,2.54-9.11,6.02-12.15,10.73-.71,1.11-1.4,2.23-2.05,3.38-2.02,3.58-3.56,7.37-4.66,11.33-.96,3.47-1.77,6.97-2.09,10.57-.11,1.23-.25,2.46-.38,3.69h18.23c.12-.99.24-1.98.36-2.98Z"/><path class="cls-1" d="M652.82,50.85h19.18c3.93-13.85,7.85-27.71,11.78-41.56v-1.57h-18.77c-4.06,14.38-8.13,28.75-12.19,43.13Z"/><path class="cls-1" d="M638.5,101.55h-3.15c-4.47-15.63-8.93-31.26-13.4-46.89-4.48-15.67-8.95-31.34-13.42-46.96-5.47-.23-18.02-.13-19.23.15,5.22,18.2,10.46,36.39,15.67,54.6,5.21,18.24,10.43,36.48,15.66,54.72h32.48c.08-.14.17-.26.21-.39,4.06-14.31,8.11-28.61,12.17-42.92h-19.15c-2.61,9.23-5.22,18.47-7.83,27.7Z"/><path class="cls-1" d="M708.9,23.24l50.99-.06V7.82c-1.84-.24-68.07-.22-69.21.02v109.32c.31.02.55.04.79.04,22.74-.02,45.47-.04,68.21-.07.04,0,.09-.03.13-.06.04-.03.06-.07.09-.1v-15.36l-51.07-.03c0-.55.08-78.35.08-78.35Z"/><path class="cls-1" d="M166.02,23.31s.09-.04.14-.04c16.76-.01,33.52-.02,50.27-.04.1,0,.2-.01.29-.04.04,0,.08-.05.12-.08.03-.03.06-.07.07-.08V7.81c-1.67-.25-68-.2-69.06.04-.23,3.09-.12,108.14.11,109.28h68.95v-15.49h-50.98l.07-78.33Z"/><path class="cls-1" d="M355.56,50.85c-4.1-14.37-8.22-28.78-12.32-43.12h-19.32c4.12,14.4,8.23,28.75,12.34,43.12h19.3Z"/><path class="cls-1" d="M399.63,7.74c-8.82,31.32-17.63,62.56-26.43,93.82h-3.16c-2.65-9.26-5.27-18.46-7.91-27.71h-19.28c4.13,14.42,8.26,28.87,12.39,43.28h32.7c10.34-36.48,20.67-72.89,31.02-109.39h-19.32Z"/><path class="cls-1" d="M81.89,70.14h37.94c-.08,1.26-.12,2.52-.23,3.77-.38,4.22-1.1,8.4-2.41,12.43-1.02,3.15-2.26,6.24-4.36,8.88-1.45,1.82-3.22,3.26-5.21,4.44-2.98,1.76-6.26,2.6-9.65,3.18-3.3.57-6.62.63-9.93.5-4.47-.17-8.81-1.03-12.83-3.08-2.45-1.25-4.57-2.94-6.36-5.09-2.27-2.71-3.65-5.85-4.85-9.11-.99-2.7-1.69-5.49-2.19-8.31-.23-1.29-.35-2.6-.46-3.92h-18.37c.14,1.47.31,2.94.5,4.41.32,2.41.67,4.82,1.25,7.17.59,2.4,1.46,4.74,2.26,7.08,1.39,4.04,3.3,7.8,5.84,11.26,1.99,2.72,4.41,4.96,7.1,6.93,2.58,1.89,5.43,3.25,8.37,4.48,5.18,2.16,10.6,3.37,16.17,3.68,4.34.24,8.7.28,13.05-.18,3.99-.42,7.91-1.13,11.7-2.44,3.99-1.38,7.74-3.3,11.11-5.85,2.42-1.83,4.61-3.94,6.46-6.38,2.13-2.81,3.84-5.87,5.33-9.07,1.13-2.44,2.07-4.94,2.86-7.5,1.09-3.59,1.84-7.24,2.4-10.95.6-3.92.8-7.85.8-11.81v-7.91c0-.73,0-1.46,0-2.19h-56.28v15.55Z"/></g><g id="Layer_2"><path class="cls-2" d="M151.63,147.59c.92-.67,2.19-1.01,3.8-1.01,1.9,0,3.35.39,4.35,1.19,1,.79,1.57,1.98,1.71,3.56l7.03-.48c-.26-2.99-1.48-5.23-3.65-6.72-2.17-1.49-5.27-2.24-9.31-2.24s-7.19.75-9.44,2.26c-2.25,1.51-3.38,3.62-3.38,6.35,0,1.76.32,3.2.97,4.33.64,1.13,1.51,2.03,2.59,2.7,1.08.67,2.26,1.2,3.54,1.58,1.27.38,2.55.71,3.82.99,1.27.28,2.45.58,3.54.9,1.08.32,1.95.77,2.59,1.34.64.57.97,1.35.97,2.35,0,1.26-.47,2.24-1.41,2.94-.94.7-2.24,1.05-3.91,1.05-1.87,0-3.35-.45-4.41-1.36-1.07-.91-1.72-2.25-1.95-4.04l-6.98.31c.35,3.4,1.58,5.88,3.69,7.47,2.11,1.58,5.26,2.37,9.44,2.37s7.3-.79,9.62-2.37c2.31-1.58,3.47-3.76,3.47-6.54,0-1.73-.33-3.14-.99-4.24-.66-1.1-1.52-1.97-2.59-2.61-1.07-.64-2.24-1.16-3.51-1.54s-2.55-.7-3.84-.97c-1.29-.26-2.47-.57-3.54-.92-1.07-.35-1.93-.82-2.59-1.41-.66-.59-.99-1.39-.99-2.42,0-1.2.46-2.14,1.38-2.81Z"/><rect class="cls-2" x="173.7" y="149.35" width="6.94" height="23.72"/><rect class="cls-2" x="173.43" y="139.95" width="7.51" height="6.46"/><path class="cls-2" d="M220.38,148.91c-3.66,0-6.46,1.22-8.41,3.65-.4.5-.75,1.05-1.06,1.64-.36-1.11-.86-2.04-1.51-2.78-1.46-1.67-3.75-2.5-6.85-2.5-3.63,0-6.41,1.22-8.34,3.65-.36.45-.67.95-.96,1.47l-.93-4.67h-5.49v23.72h6.94v-10.5c0-2.75.52-4.85,1.56-6.28,1.04-1.43,2.54-2.15,4.5-2.15,1.67,0,2.89.49,3.67,1.47.78.98,1.16,2.51,1.16,4.59v12.87h6.94v-10.5c0-2.75.51-4.85,1.54-6.28,1.02-1.43,2.52-2.15,4.48-2.15,1.67,0,2.89.49,3.67,1.47.78.98,1.16,2.51,1.16,4.59v12.87h6.94v-13.83c0-3.54-.72-6.15-2.17-7.82-1.45-1.67-3.73-2.5-6.83-2.5Z"/><path class="cls-2" d="M251.12,148.91c-2.4,0-4.49.46-6.26,1.38-1.53.8-2.74,1.9-3.68,3.27l-1.52-4.22h-4.44v31.62h6.94v-10.91c.75.81,1.62,1.5,2.64,2.04,1.76.94,3.79,1.41,6.1,1.41,3.4,0,6.02-.94,7.86-2.81,1.84-1.87,2.77-4.55,2.77-8.04v-2.9c0-3.48-.91-6.16-2.72-8.04-1.82-1.87-4.38-2.81-7.69-2.81ZM254.59,162.44c0,1.9-.48,3.4-1.45,4.48s-2.31,1.62-4.04,1.62c-2.17,0-3.86-.62-5.09-1.84-1.23-1.23-1.84-2.91-1.84-5.05v-.92c0-2.11.62-3.76,1.84-4.96,1.23-1.2,2.93-1.8,5.09-1.8,1.73,0,3.07.54,4.04,1.62s1.45,2.59,1.45,4.52v2.33Z"/><rect class="cls-2" x="266.89" y="140.57" width="6.94" height="32.5"/><rect class="cls-2" x="280.29" y="149.35" width="6.94" height="23.72"/><rect class="cls-2" x="280.02" y="139.95" width="7.51" height="6.46"/><path class="cls-2" d="M302.86,145.55c.67-.75,1.71-1.12,3.12-1.12.5,0,1,.04,1.52.13.51.09,1.02.23,1.52.44l.83-4.48c-.85-.29-1.82-.53-2.92-.7-1.1-.18-2.13-.26-3.1-.26-2.87,0-5.07.82-6.61,2.46-1.54,1.64-2.31,4-2.31,7.07v.26h-3.69v4.83h3.69v18.88h6.94v-18.88h5.45v-4.83h-5.45v-.26c0-1.61.34-2.79,1.01-3.54Z"/><polygon class="cls-2" points="327.67 149.35 321.7 166.08 321.53 166.08 315.2 149.35 308.26 149.35 317.87 173.58 315.11 180.27 322.18 181.54 334.61 149.35 327.67 149.35"/><rect class="cls-2" x="332.59" y="166.65" width="6.37" height="6.41"/><path class="cls-2" d="M374.23,162.17c0,4.28-2.06,6.41-6.19,6.41-2.17,0-3.75-.51-4.74-1.54-1-1.02-1.49-2.65-1.49-4.88v-19.85h-6.94v19.63c0,4.01,1.1,6.94,3.29,8.78,2.2,1.84,5.49,2.77,9.88,2.77,1.81,0,3.51-.24,5.09-.7,1.58-.47,2.98-1.18,4.19-2.13,1.21-.95,2.16-2.15,2.83-3.6.67-1.45,1.01-3.15,1.01-5.12v-19.63h-6.94v19.85Z"/><path class="cls-2" d="M403.04,148.91c-3.69,0-6.51,1.22-8.48,3.65-.36.45-.68.95-.97,1.47l-.96-4.68h-5.49v23.72h6.94v-10.5c0-2.75.53-4.85,1.6-6.28,1.07-1.43,2.6-2.15,4.59-2.15,1.76,0,3.03.49,3.82,1.47.79.98,1.19,2.53,1.19,4.63v12.82h6.94v-13.79c0-3.57-.74-6.19-2.22-7.86-1.48-1.67-3.8-2.5-6.96-2.5Z"/><rect class="cls-2" x="417.75" y="139.95" width="7.51" height="6.46"/><rect class="cls-2" x="418.01" y="149.35" width="6.94" height="23.72"/><path class="cls-2" d="M440.59,145.55c.67-.75,1.71-1.12,3.12-1.12.5,0,1,.04,1.52.13.51.09,1.02.23,1.52.44l.83-4.48c-.85-.29-1.82-.53-2.92-.7-1.1-.18-2.13-.26-3.1-.26-2.87,0-5.07.82-6.61,2.46-1.54,1.64-2.31,4-2.31,7.07v.26h-3.69v4.83h3.69v18.88h6.94v-18.88h5.45v-4.83h-5.45v-.26c0-1.61.34-2.79,1.01-3.54Z"/><polygon class="cls-2" points="465.4 149.35 459.43 166.08 459.25 166.08 452.93 149.35 445.99 149.35 455.6 173.58 452.84 180.27 459.91 181.54 472.34 149.35 465.4 149.35"/><rect class="cls-2" x="470.32" y="166.65" width="6.37" height="6.41"/><path class="cls-2" d="M500.23,142.32l-10.28,30.74h7.03l2.3-7.03h12.8l2.3,7.03h7.07l-10.28-30.74h-10.94ZM500.85,161.21l4.73-14.49h.18l4.73,14.49h-9.64Z"/><path class="cls-2" d="M558.38,148.91c-3.66,0-6.46,1.22-8.41,3.65-.4.5-.75,1.05-1.06,1.64-.36-1.11-.86-2.04-1.51-2.78-1.46-1.67-3.75-2.5-6.85-2.5-3.63,0-6.41,1.22-8.34,3.65-.36.45-.67.95-.96,1.47l-.93-4.67h-5.49v23.72h6.94v-10.5c0-2.75.52-4.85,1.56-6.28,1.04-1.43,2.54-2.15,4.5-2.15,1.67,0,2.89.49,3.67,1.47.78.98,1.16,2.51,1.16,4.59v12.87h6.94v-10.5c0-2.75.51-4.85,1.54-6.28,1.02-1.43,2.52-2.15,4.48-2.15,1.67,0,2.89.49,3.67,1.47.78.98,1.16,2.51,1.16,4.59v12.87h6.94v-13.83c0-3.54-.72-6.15-2.17-7.82-1.45-1.67-3.73-2.5-6.83-2.5Z"/><path class="cls-2" d="M589.12,148.91c-2.4,0-4.49.46-6.26,1.38-1.53.8-2.74,1.9-3.68,3.27l-1.52-4.22h-4.44v31.62h6.94v-10.91c.75.81,1.62,1.5,2.64,2.04,1.76.94,3.79,1.41,6.1,1.41,3.4,0,6.02-.94,7.86-2.81,1.84-1.87,2.77-4.55,2.77-8.04v-2.9c0-3.48-.91-6.16-2.72-8.04-1.82-1.87-4.38-2.81-7.69-2.81ZM592.59,162.44c0,1.9-.48,3.4-1.45,4.48s-2.31,1.62-4.04,1.62c-2.17,0-3.86-.62-5.09-1.84-1.23-1.23-1.84-2.91-1.84-5.05v-.92c0-2.11.62-3.76,1.84-4.96,1.23-1.2,2.93-1.8,5.09-1.8,1.73,0,3.07.54,4.04,1.62s1.45,2.59,1.45,4.52v2.33Z"/><rect class="cls-2" x="604.89" y="140.57" width="6.94" height="32.5"/><rect class="cls-2" x="618.02" y="139.95" width="7.51" height="6.46"/><rect class="cls-2" x="618.28" y="149.35" width="6.94" height="23.72"/><path class="cls-2" d="M640.85,145.55c.67-.75,1.71-1.12,3.12-1.12.5,0,1,.04,1.52.13.51.09,1.02.23,1.52.44l.83-4.48c-.85-.29-1.82-.53-2.92-.7-1.1-.18-2.13-.26-3.1-.26-2.87,0-5.07.82-6.61,2.46-1.54,1.64-2.31,4-2.31,7.07v.26h-3.69v4.83h3.69v18.88h6.94v-18.88h5.45v-4.83h-5.45v-.26c0-1.61.34-2.79,1.01-3.54Z"/><polygon class="cls-2" points="665.67 149.35 659.7 166.08 659.52 166.08 653.2 149.35 646.26 149.35 655.86 173.58 653.11 180.27 660.18 181.54 672.61 149.35 665.67 149.35"/><rect class="cls-2" x="670.59" y="166.65" width="6.37" height="6.41"/></g></svg>