<svg xmlns="http://www.w3.org/2000/svg" version="1.1" xmlns:xlink="http://www.w3.org/1999/xlink" xmlns:svgjs="http://svgjs.dev/svgjs" width="1000" height="366" viewBox="0 0 1000 366"><g transform="matrix(1,0,0,1,-0.6060606060606233,0.5582216776723499)"><svg viewBox="0 0 396 145" data-background-color="#0a3042" preserveAspectRatio="xMidYMid meet" height="366" width="1000" xmlns="http://www.w3.org/2000/svg" xmlns:xlink="http://www.w3.org/1999/xlink"><g id="tight-bounds" transform="matrix(1,0,0,1,0.2400000000000091,-0.22115339689204916)"><svg viewBox="0 0 395.52 145.4423067937841" height="145.4423067937841" width="395.52"><g><svg viewBox="0 0 668.0372520665244 245.6535167999998" height="145.4423067937841" width="395.52"><g transform="matrix(1,0,0,1,270.53965206652447,39.7684018554567)"><svg viewBox="0 0 397.4975999999999 166.1167130890864" height="166.1167130890864" width="397.4975999999999"><g><svg viewBox="0 0 397.4975999999999 166.1167130890864" height="166.1167130890864" width="397.4975999999999"><g><rect width="397.4975999999999" height="9.506503671812366" x="0" y="116.61453912153517" fill="#ffffff" opacity="1" stroke-width="0" stroke="transparent" fill-opacity="1" class="rect-in-0" data-fill-palette-color="primary" rx="1%" id="in-0" data-palette-color="#ffffff"></rect></g><g transform="matrix(1,0,0,1,0.9887999999999693,0)"><svg viewBox="0 0 395.52 105.41577825159914" height="105.41577825159914" width="395.52"><g transform="matrix(1,0,0,1,0,0)"><svg width="395.52" viewBox="1.3 -37.5 187.57999999999998 50" height="105.41577825159914" data-palette-color="#ffffff"><path d="M12.95 12.5L12.95 12.5Q9.6 12.5 6.96 11.68 4.33 10.85 2.81 9.22 1.3 7.6 1.3 5.2L1.3 5.2Q1.3 3.2 2.44 1.76 3.58 0.33 5.55-0.55L5.55-0.55Q4.38-1.13 3.76-1.91 3.15-2.7 3.15-3.65L3.15-3.65Q3.15-4.78 3.84-5.69 4.53-6.6 6.05-7.2L6.05-7.2Q4-8.47 2.9-10.64 1.8-12.8 1.8-15.45L1.8-15.45Q1.8-18.13 3-20.29 4.2-22.45 6.46-23.73 8.72-25 11.9-25L11.9-25Q13.6-25 15.11-24.5 16.63-24 17.9-23.1L17.9-23.1Q19.03-23.75 20.56-24.18 22.1-24.6 24-24.6L24-24.6Q24.13-24.6 24.21-24.6 24.3-24.6 24.4-24.6L24.4-24.6 23.85-21.6Q23.55-21.6 23.28-21.6 23-21.6 22.7-21.6L22.7-21.6Q22.45-21.6 21.55-21.53 20.65-21.45 19.9-21.25L19.9-21.25Q20.93-20.05 21.49-18.56 22.05-17.07 22.05-15.45L22.05-15.45Q22.05-12.65 20.84-10.44 19.63-8.22 17.35-6.94 15.08-5.65 11.9-5.65L11.9-5.65Q11-5.65 10.18-5.76 9.35-5.88 8.6-6.1L8.6-6.1Q7.45-5.73 7.45-4.8L7.45-4.8Q7.45-4.25 8.1-3.84 8.75-3.43 10.2-3.2L10.2-3.2 16.75-2.15Q20.73-1.53 22.89 0.15 25.05 1.83 25.05 4.9L25.05 4.9Q25.05 7.45 23.56 9.14 22.08 10.83 19.35 11.66 16.63 12.5 12.95 12.5ZM13.35 8.5L13.35 8.5Q16.8 8.5 18.65 7.61 20.5 6.73 20.5 5L20.5 5Q20.5 3.65 19.34 2.88 18.18 2.1 16 1.7L16 1.7 9.03 0.53Q7.65 1.13 6.63 2.14 5.6 3.15 5.6 4.5L5.6 4.5Q5.6 6.6 7.71 7.55 9.83 8.5 13.35 8.5ZM11.9-9.25L11.9-9.25Q14.75-9.25 16.25-10.96 17.75-12.68 17.75-15.4L17.75-15.4Q17.75-18.03 16.25-19.71 14.75-21.4 11.9-21.4L11.9-21.4Q9.05-21.4 7.58-19.71 6.1-18.03 6.1-15.4L6.1-15.4Q6.1-12.68 7.58-10.96 9.05-9.25 11.9-9.25ZM39.7 0.5L39.7 0.5Q35.37 0.5 32.42-1.28 29.47-3.05 27.96-5.99 26.45-8.93 26.45-12.45L26.45-12.45Q26.45-15.88 27.86-18.73 29.27-21.58 31.96-23.29 34.65-25 38.45-25L38.45-25Q41.5-25 43.89-23.79 46.27-22.58 47.64-20.26 49-17.95 49-14.65L49-14.65Q49-14.13 48.96-13.51 48.92-12.9 48.8-12.25L48.8-12.25 31.05-12.25Q31.37-8.85 32.67-6.95 33.97-5.05 35.95-4.28 37.92-3.5 40.25-3.5L40.25-3.5Q41.95-3.5 43.8-3.85 45.65-4.2 47.3-4.95L47.3-4.95 47.9-1.4Q46.47-0.78 44.42-0.14 42.37 0.5 39.7 0.5ZM31.45-15.35L31.45-15.35 44.35-15.35Q44.35-17.07 43.7-18.35 43.05-19.63 41.72-20.31 40.4-21 38.35-21L38.35-21Q35.35-21 33.73-19.51 32.12-18.03 31.45-15.35ZM64.25 0.5L64.25 0.5Q60.4 0.5 57.68-1.21 54.97-2.93 53.53-5.81 52.1-8.7 52.1-12.25L52.1-12.25Q52.1-15.8 53.53-18.69 54.97-21.58 57.68-23.29 60.4-25 64.25-25L64.25-25Q68.07-25 70.8-23.29 73.52-21.58 74.96-18.69 76.4-15.8 76.4-12.25L76.4-12.25Q76.4-8.7 74.96-5.81 73.52-2.93 70.8-1.21 68.07 0.5 64.25 0.5ZM64.25-3.5L64.25-3.5Q67.9-3.5 69.84-5.81 71.8-8.13 71.8-12.25L71.8-12.25Q71.8-16.38 69.84-18.69 67.9-21 64.25-21L64.25-21Q60.62-21 58.66-18.69 56.7-16.38 56.7-12.25L56.7-12.25Q56.7-8.13 58.66-5.81 60.62-3.5 64.25-3.5ZM92.39 0L87.34 0 77.99-24.5 82.99-24.5 89.84-4.95 96.64-24.5 101.69-24.5 92.39 0ZM115.44 0.5L115.44 0.5Q111.59 0.5 108.88-1.21 106.17-2.93 104.73-5.81 103.29-8.7 103.29-12.25L103.29-12.25Q103.29-15.8 104.73-18.69 106.17-21.58 108.88-23.29 111.59-25 115.44-25L115.44-25Q119.27-25 121.99-23.29 124.72-21.58 126.15-18.69 127.59-15.8 127.59-12.25L127.59-12.25Q127.59-8.7 126.15-5.81 124.72-2.93 121.99-1.21 119.27 0.5 115.44 0.5ZM115.44-3.5L115.44-3.5Q119.09-3.5 121.04-5.81 122.99-8.13 122.99-12.25L122.99-12.25Q122.99-16.38 121.04-18.69 119.09-21 115.44-21L115.44-21Q111.82-21 109.85-18.69 107.89-16.38 107.89-12.25L107.89-12.25Q107.89-8.13 109.85-5.81 111.82-3.5 115.44-3.5ZM139.99 0.5L138.54 0.5Q136.16 0.5 134.78-0.36 133.39-1.23 132.79-2.58 132.19-3.93 132.19-5.4L132.19-5.4 132.19-37.5 136.69-37.5 136.69-8Q136.69-5.9 136.96-4.85 137.24-3.8 138.07-3.45 138.91-3.1 140.64-3.1L140.64-3.1 139.99 0.5ZM155.49 0L150.44 0 141.09-24.5 146.09-24.5 152.94-4.95 159.74-24.5 164.79-24.5 155.49 0ZM179.58 0.5L179.58 0.5Q175.26 0.5 172.31-1.28 169.36-3.05 167.85-5.99 166.33-8.93 166.33-12.45L166.33-12.45Q166.33-15.88 167.75-18.73 169.16-21.58 171.85-23.29 174.53-25 178.33-25L178.33-25Q181.38-25 183.77-23.79 186.16-22.58 187.52-20.26 188.88-17.95 188.88-14.65L188.88-14.65Q188.88-14.13 188.85-13.51 188.81-12.9 188.68-12.25L188.68-12.25 170.93-12.25Q171.26-8.85 172.56-6.95 173.86-5.05 175.83-4.28 177.81-3.5 180.13-3.5L180.13-3.5Q181.83-3.5 183.68-3.85 185.53-4.2 187.18-4.95L187.18-4.95 187.78-1.4Q186.36-0.78 184.31-0.14 182.26 0.5 179.58 0.5ZM171.33-15.35L171.33-15.35 184.23-15.35Q184.23-17.07 183.58-18.35 182.93-19.63 181.61-20.31 180.28-21 178.23-21L178.23-21Q175.23-21 173.62-19.51 172.01-18.03 171.33-15.35Z" opacity="1" transform="matrix(1,0,0,1,0,0)" fill="#ffffff" class="undefined-text-0" data-fill-palette-color="primary" id="text-0"></path></svg></g></svg></g><g transform="matrix(1,0,0,1,0,137.31980366328358)"><svg viewBox="0 0 375.744 28.796909425802834" height="28.796909425802834" width="375.744"><g transform="matrix(1,0,0,1,0,0)"><svg width="375.744" viewBox="4 -36.5 624.29 47.85" height="28.796909425802834" data-palette-color="#ffffff"><path d="M9.6-4.95L28.35-4.95 28.35 0 4 0 4-35.5 27.9-35.5 27.9-30.55 9.6-30.55 9.6-20.45 25.45-20.45 25.45-15.8 9.6-15.8 9.6-4.95ZM46.15 0L40.15 0 30.2-26.15 35.9-26.15 43.35-5.1 50.8-26.15 56.1-26.15 46.15 0ZM70.9 0.5L70.9 0.5Q67.8 0.5 65.34-0.58 62.9-1.65 61.12-3.55 59.35-5.45 58.4-7.88 57.45-10.3 57.45-13.05L57.45-13.05Q57.45-15.8 58.4-18.25 59.35-20.7 61.12-22.58 62.9-24.45 65.37-25.53 67.84-26.6 70.9-26.6L70.9-26.6Q73.95-26.6 76.42-25.53 78.9-24.45 80.67-22.58 82.45-20.7 83.4-18.25 84.34-15.8 84.34-13.05L84.34-13.05Q84.34-10.3 83.4-7.88 82.45-5.45 80.67-3.55 78.9-1.65 76.42-0.58 73.95 0.5 70.9 0.5ZM63.1-13L63.1-13Q63.1-10.5 64.15-8.5 65.2-6.5 66.95-5.35 68.7-4.2 70.9-4.2L70.9-4.2Q73.05-4.2 74.82-5.38 76.59-6.55 77.65-8.58 78.7-10.6 78.7-13.05L78.7-13.05Q78.7-15.55 77.65-17.55 76.59-19.55 74.82-20.73 73.05-21.9 70.9-21.9L70.9-21.9Q68.7-21.9 66.95-20.7 65.2-19.5 64.15-17.53 63.1-15.55 63.1-13ZM89.29-5.55L89.29-36.5 94.79-36.5 94.79-7.55Q94.79-5.55 95.39-5 95.99-4.45 96.89-4.45L96.89-4.45Q97.89-4.45 98.77-4.65 99.64-4.85 100.29-5.15L100.29-5.15 101.09-0.8Q99.89-0.3 98.24 0.05 96.59 0.4 95.29 0.4L95.29 0.4Q92.49 0.4 90.89-1.18 89.29-2.75 89.29-5.55L89.29-5.55ZM116.44 0L110.44 0 100.49-26.15 106.19-26.15 113.64-5.1 121.09-26.15 126.39-26.15 116.44 0ZM141.29 0.5L141.29 0.5Q138.24 0.5 135.76-0.58 133.29-1.65 131.49-3.53 129.69-5.4 128.71-7.83 127.74-10.25 127.74-13L127.74-13Q127.74-16.7 129.44-19.78 131.14-22.85 134.19-24.73 137.24-26.6 141.34-26.6L141.34-26.6Q145.44-26.6 148.41-24.73 151.39-22.85 153.04-19.8 154.69-16.75 154.69-13.25L154.69-13.25Q154.69-12.65 154.64-12.13 154.59-11.6 154.54-11.25L154.54-11.25 133.59-11.25Q133.74-8.95 134.86-7.23 135.99-5.5 137.74-4.53 139.49-3.55 141.49-3.55L141.49-3.55Q143.69-3.55 145.66-4.65 147.64-5.75 148.34-7.55L148.34-7.55 153.04-6.2Q152.19-4.3 150.46-2.78 148.74-1.25 146.39-0.38 144.04 0.5 141.29 0.5ZM133.44-14.9L133.44-14.9 149.24-14.9Q149.09-17.15 147.96-18.88 146.84-20.6 145.11-21.58 143.39-22.55 141.29-22.55L141.29-22.55Q139.24-22.55 137.51-21.58 135.79-20.6 134.69-18.88 133.59-17.15 133.44-14.9ZM186.73 0.25L186.73 0.25Q183.23 0.25 180.18-1.2 177.13-2.65 174.86-5.2 172.58-7.75 171.31-11 170.03-14.25 170.03-17.9L170.03-17.9Q170.03-21.55 171.31-24.75 172.58-27.95 174.86-30.45 177.13-32.95 180.21-34.35 183.28-35.75 186.93-35.75L186.93-35.75Q191.98-35.75 195.46-33.63 198.93-31.5 200.68-28L200.68-28 196.38-24.9Q194.98-27.8 192.41-29.25 189.83-30.7 186.78-30.7L186.78-30.7Q184.28-30.7 182.23-29.65 180.18-28.6 178.71-26.78 177.23-24.95 176.48-22.63 175.73-20.3 175.73-17.75L175.73-17.75Q175.73-15.05 176.58-12.7 177.43-10.35 178.98-8.58 180.53-6.8 182.63-5.8 184.73-4.8 187.18-4.8L187.18-4.8Q190.08-4.8 192.71-6.28 195.33-7.75 197.63-10.7L197.63-10.7 197.63-5Q192.98 0.25 186.73 0.25ZM197.08 0L197.08-13.8 189.63-13.8 189.63-17.95 201.78-17.95 201.78 0 197.08 0ZM219.33 0.5L219.33 0.5Q216.28 0.5 213.81-0.58 211.33-1.65 209.53-3.53 207.73-5.4 206.75-7.83 205.78-10.25 205.78-13L205.78-13Q205.78-16.7 207.48-19.78 209.18-22.85 212.23-24.73 215.28-26.6 219.38-26.6L219.38-26.6Q223.48-26.6 226.46-24.73 229.43-22.85 231.08-19.8 232.73-16.75 232.73-13.25L232.73-13.25Q232.73-12.65 232.68-12.13 232.63-11.6 232.58-11.25L232.58-11.25 211.63-11.25Q211.78-8.95 212.91-7.23 214.03-5.5 215.78-4.53 217.53-3.55 219.53-3.55L219.53-3.55Q221.73-3.55 223.71-4.65 225.68-5.75 226.38-7.55L226.38-7.55 231.08-6.2Q230.23-4.3 228.5-2.78 226.78-1.25 224.43-0.38 222.08 0.5 219.33 0.5ZM211.48-14.9L211.48-14.9 227.28-14.9Q227.13-17.15 226-18.88 224.88-20.6 223.16-21.58 221.43-22.55 219.33-22.55L219.33-22.55Q217.28-22.55 215.56-21.58 213.83-20.6 212.73-18.88 211.63-17.15 211.48-14.9ZM248.98 0.5L248.98 0.5Q245.88 0.5 243.43-0.58 240.98-1.65 239.2-3.55 237.43-5.45 236.48-7.88 235.53-10.3 235.53-13.05L235.53-13.05Q235.53-15.8 236.48-18.25 237.43-20.7 239.2-22.58 240.98-24.45 243.45-25.53 245.93-26.6 248.98-26.6L248.98-26.6Q252.03-26.6 254.5-25.53 256.98-24.45 258.75-22.58 260.53-20.7 261.48-18.25 262.43-15.8 262.43-13.05L262.43-13.05Q262.43-10.3 261.48-7.88 260.53-5.45 258.75-3.55 256.98-1.65 254.5-0.58 252.03 0.5 248.98 0.5ZM241.18-13L241.18-13Q241.18-10.5 242.23-8.5 243.28-6.5 245.03-5.35 246.78-4.2 248.98-4.2L248.98-4.2Q251.13-4.2 252.9-5.38 254.68-6.55 255.73-8.58 256.78-10.6 256.78-13.05L256.78-13.05Q256.78-15.55 255.73-17.55 254.68-19.55 252.9-20.73 251.13-21.9 248.98-21.9L248.98-21.9Q246.78-21.9 245.03-20.7 243.28-19.5 242.23-17.53 241.18-15.55 241.18-13ZM276.63 0.5L276.63 0.5Q273.33 0.5 270.38-0.58 267.43-1.65 265.33-3.8L265.33-3.8 267.38-7.5Q269.63-5.5 271.9-4.6 274.18-3.7 276.43-3.7L276.43-3.7Q278.73-3.7 280.18-4.58 281.63-5.45 281.63-7.15L281.63-7.15Q281.63-8.4 280.88-9 280.13-9.6 278.7-10.05 277.28-10.5 275.28-11.05L275.28-11.05Q272.48-11.9 270.58-12.83 268.68-13.75 267.73-15.1 266.78-16.45 266.78-18.55L266.78-18.55Q266.78-21.1 268.08-22.9 269.38-24.7 271.7-25.65 274.03-26.6 277.08-26.6L277.08-26.6Q279.93-26.6 282.35-25.73 284.78-24.85 286.63-23L286.63-23 284.28-19.35Q282.53-20.95 280.7-21.7 278.88-22.45 276.78-22.45L276.78-22.45Q275.58-22.45 274.48-22.18 273.38-21.9 272.65-21.18 271.93-20.45 271.93-19.15L271.93-19.15Q271.93-18.1 272.53-17.45 273.13-16.8 274.33-16.35 275.53-15.9 277.28-15.35L277.28-15.35Q280.33-14.45 282.48-13.58 284.63-12.7 285.8-11.33 286.98-9.95 286.98-7.55L286.98-7.55Q286.98-3.75 284.15-1.63 281.33 0.5 276.63 0.5ZM306.72 0.5L306.72 0.5Q303.57 0.5 301.17-1 298.77-2.5 297.37-4.9L297.37-4.9 297.37 10.65 291.87 10.65 291.87-26.15 296.72-26.15 296.72-21.45Q298.22-23.8 300.62-25.2 303.02-26.6 305.97-26.6L305.97-26.6Q308.67-26.6 310.92-25.53 313.17-24.45 314.82-22.55 316.47-20.65 317.4-18.23 318.32-15.8 318.32-13.1L318.32-13.1Q318.32-9.35 316.85-6.25 315.37-3.15 312.75-1.33 310.12 0.5 306.72 0.5ZM304.92-4.2L304.92-4.2Q306.67-4.2 308.1-4.95 309.52-5.7 310.55-6.95 311.57-8.2 312.12-9.8 312.67-11.4 312.67-13.1L312.67-13.1Q312.67-14.9 312.07-16.5 311.47-18.1 310.35-19.3 309.22-20.5 307.75-21.2 306.27-21.9 304.52-21.9L304.52-21.9Q303.47-21.9 302.32-21.5 301.17-21.1 300.17-20.4 299.17-19.7 298.42-18.75 297.67-17.8 297.37-16.75L297.37-16.75 297.37-9.9Q298.07-8.3 299.22-7.03 300.37-5.75 301.87-4.98 303.37-4.2 304.92-4.2ZM321.37-7.65L321.37-7.65Q321.37-10.15 322.8-12.03 324.22-13.9 326.72-14.93 329.22-15.95 332.52-15.95L332.52-15.95Q334.27-15.95 336.1-15.7 337.92-15.45 339.32-14.9L339.32-14.9 339.32-16.55Q339.32-19.3 337.67-20.85 336.02-22.4 332.92-22.4L332.92-22.4Q330.72-22.4 328.77-21.63 326.82-20.85 324.62-19.45L324.62-19.45 322.77-23.15Q325.37-24.9 328-25.75 330.62-26.6 333.52-26.6L333.52-26.6Q338.77-26.6 341.8-23.83 344.82-21.05 344.82-15.95L344.82-15.95 344.82-6.2Q344.82-5.25 345.15-4.85 345.47-4.45 346.27-4.4L346.27-4.4 346.27 0Q345.52 0.15 344.92 0.2 344.32 0.25 343.92 0.25L343.92 0.25Q342.17 0.25 341.27-0.6 340.37-1.45 340.22-2.6L340.22-2.6 340.07-4.1Q338.37-1.9 335.72-0.7 333.07 0.5 330.37 0.5L330.37 0.5Q327.77 0.5 325.72-0.58 323.67-1.65 322.52-3.5 321.37-5.35 321.37-7.65ZM338.02-6.05L338.02-6.05Q338.62-6.7 338.97-7.35 339.32-8 339.32-8.5L339.32-8.5 339.32-11.5Q337.92-12.05 336.37-12.33 334.82-12.6 333.32-12.6L333.32-12.6Q330.32-12.6 328.45-11.4 326.57-10.2 326.57-8.1L326.57-8.1Q326.57-6.95 327.2-5.9 327.82-4.85 329-4.2 330.17-3.55 331.92-3.55L331.92-3.55Q333.72-3.55 335.37-4.25 337.02-4.95 338.02-6.05ZM364.67-5.7L365.82-1.35Q365.12-1 364.07-0.6 363.02-0.2 361.69 0.1 360.37 0.4 358.97 0.4L358.97 0.4Q357.27 0.4 355.82-0.2 354.37-0.8 353.49-2.13 352.62-3.45 352.62-5.55L352.62-5.55 352.62-21.9 349.17-21.9 349.17-26.15 352.62-26.15 352.62-34.75 358.12-34.75 358.12-26.15 363.82-26.15 363.82-21.9 358.12-21.9 358.12-7.3Q358.22-5.95 358.99-5.3 359.77-4.65 360.92-4.65L360.92-4.65Q362.07-4.65 363.12-5.05 364.17-5.45 364.67-5.7L364.67-5.7ZM375.12 0L369.62 0 369.62-26.15 375.12-26.15 375.12 0ZM375.12-30.45L369.62-30.45 369.62-36.5 375.12-36.5 375.12-30.45ZM379.81-7.65L379.81-7.65Q379.81-10.15 381.24-12.03 382.66-13.9 385.16-14.93 387.66-15.95 390.96-15.95L390.96-15.95Q392.71-15.95 394.54-15.7 396.36-15.45 397.76-14.9L397.76-14.9 397.76-16.55Q397.76-19.3 396.11-20.85 394.46-22.4 391.36-22.4L391.36-22.4Q389.16-22.4 387.21-21.63 385.26-20.85 383.06-19.45L383.06-19.45 381.21-23.15Q383.81-24.9 386.44-25.75 389.06-26.6 391.96-26.6L391.96-26.6Q397.21-26.6 400.24-23.83 403.26-21.05 403.26-15.95L403.26-15.95 403.26-6.2Q403.26-5.25 403.59-4.85 403.91-4.45 404.71-4.4L404.71-4.4 404.71 0Q403.96 0.15 403.36 0.2 402.76 0.25 402.36 0.25L402.36 0.25Q400.61 0.25 399.71-0.6 398.81-1.45 398.66-2.6L398.66-2.6 398.51-4.1Q396.81-1.9 394.16-0.7 391.51 0.5 388.81 0.5L388.81 0.5Q386.21 0.5 384.16-0.58 382.11-1.65 380.96-3.5 379.81-5.35 379.81-7.65ZM396.46-6.05L396.46-6.05Q397.06-6.7 397.41-7.35 397.76-8 397.76-8.5L397.76-8.5 397.76-11.5Q396.36-12.05 394.81-12.33 393.26-12.6 391.76-12.6L391.76-12.6Q388.76-12.6 386.89-11.4 385.01-10.2 385.01-8.1L385.01-8.1Q385.01-6.95 385.64-5.9 386.26-4.85 387.44-4.2 388.61-3.55 390.36-3.55L390.36-3.55Q392.16-3.55 393.81-4.25 395.46-4.95 396.46-6.05ZM409.96-5.55L409.96-36.5 415.46-36.5 415.46-7.55Q415.46-5.55 416.06-5 416.66-4.45 417.56-4.45L417.56-4.45Q418.56-4.45 419.44-4.65 420.31-4.85 420.96-5.15L420.96-5.15 421.76-0.8Q420.56-0.3 418.91 0.05 417.26 0.4 415.96 0.4L415.96 0.4Q413.16 0.4 411.56-1.18 409.96-2.75 409.96-5.55L409.96-5.55ZM472.11 0L466.46 0 466.46-25.3 456.01-6.1 452.71-6.1 442.21-25.3 442.21 0 436.61 0 436.61-35.5 442.61-35.5 454.36-13.8 466.11-35.5 472.11-35.5 472.11 0ZM477.2-7.65L477.2-7.65Q477.2-10.15 478.63-12.03 480.05-13.9 482.55-14.93 485.05-15.95 488.35-15.95L488.35-15.95Q490.1-15.95 491.93-15.7 493.75-15.45 495.15-14.9L495.15-14.9 495.15-16.55Q495.15-19.3 493.5-20.85 491.85-22.4 488.75-22.4L488.75-22.4Q486.55-22.4 484.6-21.63 482.65-20.85 480.45-19.45L480.45-19.45 478.6-23.15Q481.2-24.9 483.83-25.75 486.45-26.6 489.35-26.6L489.35-26.6Q494.6-26.6 497.63-23.83 500.65-21.05 500.65-15.95L500.65-15.95 500.65-6.2Q500.65-5.25 500.98-4.85 501.3-4.45 502.1-4.4L502.1-4.4 502.1 0Q501.35 0.15 500.75 0.2 500.15 0.25 499.75 0.25L499.75 0.25Q498 0.25 497.1-0.6 496.2-1.45 496.05-2.6L496.05-2.6 495.9-4.1Q494.2-1.9 491.55-0.7 488.9 0.5 486.2 0.5L486.2 0.5Q483.6 0.5 481.55-0.58 479.5-1.65 478.35-3.5 477.2-5.35 477.2-7.65ZM493.85-6.05L493.85-6.05Q494.45-6.7 494.8-7.35 495.15-8 495.15-8.5L495.15-8.5 495.15-11.5Q493.75-12.05 492.2-12.33 490.65-12.6 489.15-12.6L489.15-12.6Q486.15-12.6 484.28-11.4 482.4-10.2 482.4-8.1L482.4-8.1Q482.4-6.95 483.03-5.9 483.65-4.85 484.83-4.2 486-3.55 487.75-3.55L487.75-3.55Q489.55-3.55 491.2-4.25 492.85-4.95 493.85-6.05ZM520.5-5.7L521.65-1.35Q520.95-1 519.9-0.6 518.85-0.2 517.53 0.1 516.2 0.4 514.8 0.4L514.8 0.4Q513.1 0.4 511.65-0.2 510.2-0.8 509.33-2.13 508.45-3.45 508.45-5.55L508.45-5.55 508.45-21.9 505-21.9 505-26.15 508.45-26.15 508.45-34.75 513.95-34.75 513.95-26.15 519.65-26.15 519.65-21.9 513.95-21.9 513.95-7.3Q514.05-5.95 514.83-5.3 515.6-4.65 516.75-4.65L516.75-4.65Q517.9-4.65 518.95-5.05 520-5.45 520.5-5.7L520.5-5.7ZM525.2-10.15L525.2-10.15 525.2-26.15 530.7-26.15 530.7-11.25Q530.7-7.75 531.97-5.98 533.25-4.2 535.7-4.2L535.7-4.2Q537.25-4.2 538.72-4.85 540.2-5.5 541.42-6.78 542.65-8.05 543.4-9.85L543.4-9.85 543.4-26.15 548.9-26.15 548.9-6.2Q548.9-5.25 549.25-4.85 549.6-4.45 550.4-4.4L550.4-4.4 550.4 0Q549.55 0.15 549 0.2 548.45 0.25 547.95 0.25L547.95 0.25Q546.45 0.25 545.45-0.58 544.45-1.4 544.3-2.7L544.3-2.7 544.2-5.3Q542.45-2.45 539.65-0.98 536.85 0.5 533.5 0.5L533.5 0.5Q529.4 0.5 527.3-2.2 525.2-4.9 525.2-10.15ZM570.6-26.35L570.6-21.4Q567.39-21.35 564.92-19.95 562.45-18.55 561.39-16L561.39-16 561.39 0 555.89 0 555.89-26.15 561-26.15 561-20.3Q562.35-23 564.55-24.63 566.75-26.25 569.2-26.4L569.2-26.4Q569.7-26.4 570.02-26.4 570.35-26.4 570.6-26.35L570.6-26.35ZM580.09 0L574.59 0 574.59-26.15 580.09-26.15 580.09 0ZM580.09-30.45L574.59-30.45 574.59-36.5 580.09-36.5 580.09-30.45ZM600.09-5.7L601.24-1.35Q600.54-1 599.49-0.6 598.44-0.2 597.12 0.1 595.79 0.4 594.39 0.4L594.39 0.4Q592.69 0.4 591.24-0.2 589.79-0.8 588.91-2.13 588.04-3.45 588.04-5.55L588.04-5.55 588.04-21.9 584.59-21.9 584.59-26.15 588.04-26.15 588.04-34.75 593.54-34.75 593.54-26.15 599.24-26.15 599.24-21.9 593.54-21.9 593.54-7.3Q593.64-5.95 594.41-5.3 595.19-4.65 596.34-4.65L596.34-4.65Q597.49-4.65 598.54-5.05 599.59-5.45 600.09-5.7L600.09-5.7ZM605.89 10.95L605.89 6.15Q606.64 6.25 607.36 6.38 608.09 6.5 608.54 6.5L608.54 6.5Q609.39 6.5 610.01 5.98 610.64 5.45 611.29 4.05 611.94 2.65 612.89 0L612.89 0 602.14-26.15 607.89-26.15 615.89-5.6 622.99-26.15 628.29-26.15 616.44 6.05Q615.89 7.5 614.84 8.72 613.79 9.95 612.24 10.65 610.69 11.35 608.59 11.35L608.59 11.35Q607.99 11.35 607.34 11.25 606.69 11.15 605.89 10.95L605.89 10.95Z" opacity="1" transform="matrix(1,0,0,1,0,0)" fill="#ffffff" class="undefined-text-1" data-fill-palette-color="secondary" id="text-1"></path></svg></g></svg></g></svg></g></svg></g><g><svg viewBox="0 0 245.65351679999992 245.6535167999998" height="245.6535167999998" width="245.65351679999992"><g><svg xmlns="http://www.w3.org/2000/svg" xmlns:xlink="http://www.w3.org/1999/xlink" version="1.1" x="0" y="0" viewBox="7.0000000000000036 7.001000000000001 49.999000000000024 49.998999999999995" enable-background="new 0 0 64 64" xml:space="preserve" height="245.6535167999998" width="245.65351679999992" class="icon-icon-0" data-fill-palette-color="accent" id="icon-0"><g fill="#64ee85" data-fill-palette-color="accent"><path d="M52 27c-2.414 0-4.435 1.721-4.898 4h-2.152c-0.217-2.833-1.341-5.411-3.088-7.447l1.523-1.523c0.812 0.538 1.762 0.829 2.758 0.829 1.335 0 2.591-0.52 3.535-1.464 1.949-1.95 1.949-5.122 0-7.071-0.944-0.944-2.2-1.464-3.535-1.464-1.336 0-2.592 0.52-3.536 1.464-1.707 1.708-1.919 4.352-0.636 6.293l-1.523 1.523c-2.036-1.747-4.615-2.871-7.447-3.088v-2.152c2.279-0.465 4-2.484 4-4.899 0-2.757-2.243-5-5-5s-5 2.243-5 5c0 2.415 1.721 4.434 4 4.899v2.152c-2.833 0.217-5.411 1.341-7.447 3.088l-1.523-1.523c1.283-1.94 1.071-4.585-0.636-6.293-0.944-0.944-2.2-1.464-3.536-1.464s-2.591 0.52-3.536 1.464-1.464 2.2-1.464 3.536 0.52 2.591 1.464 3.536 2.2 1.464 3.536 1.464c0.996 0 1.946-0.291 2.757-0.829l1.523 1.523c-1.747 2.036-2.871 4.615-3.088 7.447h-2.152c-0.465-2.279-2.484-4-4.899-4-2.757 0-5 2.243-5 5s2.243 5 5 5c2.415 0 4.434-1.721 4.899-4h2.152c0.217 2.832 1.341 5.411 3.088 7.447l-1.524 1.523c-0.811-0.538-1.761-0.828-2.757-0.828-1.335 0-2.591 0.52-3.536 1.464-1.949 1.949-1.949 5.122 0 7.071 0.944 0.944 2.2 1.464 3.536 1.464s2.591-0.52 3.536-1.464c1.706-1.707 1.917-4.353 0.635-6.293l1.524-1.523c2.036 1.747 4.615 2.871 7.447 3.088v2.152c-2.279 0.464-4 2.484-4 4.898 0 2.757 2.243 5 5 5s5-2.243 5-5c0-2.414-1.721-4.435-4-4.898v-2.152c2.832-0.217 5.411-1.341 7.447-3.088l1.523 1.523c-1.282 1.94-1.07 4.586 0.636 6.293 0.944 0.944 2.2 1.464 3.536 1.464 1.335 0 2.591-0.52 3.535-1.464 1.948-1.949 1.948-5.122 0-7.071-0.944-0.944-2.2-1.464-3.535-1.464-0.996 0-1.946 0.29-2.758 0.828l-1.523-1.523c1.747-2.036 2.871-4.615 3.088-7.447h2.152c0.464 2.279 2.484 4 4.898 4 2.757 0 5-2.243 5-5S54.757 27 52 27zM44.021 15.736c0.566-0.566 1.32-0.878 2.122-0.878 0.801 0 1.555 0.312 2.121 0.878 1.169 1.17 1.169 3.073 0 4.243-1.134 1.134-3.111 1.133-4.243 0C42.852 18.81 42.852 16.906 44.021 15.736zM29 12c0-1.654 1.346-3 3-3s3 1.346 3 3-1.346 3-3 3S29 13.654 29 12zM15.736 19.979c-0.566-0.567-0.878-1.32-0.878-2.122s0.312-1.555 0.878-2.122c0.567-0.566 1.32-0.878 2.122-0.878s1.555 0.312 2.122 0.878c1.169 1.17 1.169 3.073 0 4.243C18.847 21.112 16.869 21.112 15.736 19.979zM12 35c-1.654 0-3-1.346-3-3s1.346-3 3-3 3 1.346 3 3S13.654 35 12 35zM29 30c0-1.654 1.346-3 3-3s3 1.346 3 3-1.346 3-3 3S29 31.654 29 30zM32 43c-3.083 0-5.871-1.279-7.87-3.33C25.716 36.787 28.687 35 32 35c3.27 0 6.295 1.826 7.868 4.672C37.869 41.722 35.082 43 32 43zM19.979 48.264c-1.133 1.133-3.11 1.133-4.243 0-1.169-1.17-1.169-3.073 0-4.243 0.566-0.566 1.32-0.878 2.122-0.878s1.555 0.312 2.121 0.878C21.148 45.19 21.148 47.094 19.979 48.264zM35 52c0 1.654-1.346 3-3 3s-3-1.346-3-3 1.346-3 3-3S35 50.346 35 52zM48.264 44.021c1.169 1.17 1.169 3.073 0 4.243-1.134 1.133-3.111 1.133-4.243 0-1.169-1.17-1.169-3.073 0-4.243 0.566-0.566 1.32-0.878 2.122-0.878C46.943 43.143 47.697 43.454 48.264 44.021zM41.211 37.995c-1.364-2.082-3.401-3.632-5.731-4.416C36.414 32.67 37 31.404 37 30c0-2.757-2.243-5-5-5s-5 2.243-5 5c0 1.404 0.586 2.67 1.521 3.579-2.339 0.774-4.357 2.312-5.728 4.424C21.664 36.274 21 34.215 21 32c0-6.065 4.935-11 11-11s11 4.935 11 11C43 34.211 42.338 36.269 41.211 37.995zM52 35c-1.654 0-3-1.346-3-3s1.346-3 3-3 3 1.346 3 3S53.654 35 52 35z" fill="#64ee85" data-fill-palette-color="accent"></path></g></svg></g></svg></g></svg></g><defs></defs></svg><rect width="395.52" height="145.4423067937841" fill="none" stroke="none" visibility="hidden"></rect></g></svg></g></svg>