<?xml version="1.0" encoding="utf-8"?>
<!-- Generator: Adobe Illustrator 19.2.0, SVG Export Plug-In . SVG Version: 6.00 Build 0)  -->
<svg version="1.1" id="Layer_1" xmlns="http://www.w3.org/2000/svg" xmlns:xlink="http://www.w3.org/1999/xlink" x="0px" y="0px"
	 width="200px" height="80px" viewBox="0 0 200 80" style="enable-background:new 0 0 200 80;" xml:space="preserve">
<style type="text/css">
	.st0{fill:#4A4151;}
</style>
<title>LINQ_rgb</title>
<path class="st0" d="M48.2,53.8H24.6V22.6c0-1.3-1.1-2.4-2.4-2.4s-2.4,1.1-2.4,2.4v33.5c0,1.3,1.1,2.4,2.4,2.4h26
	c1.3,0,2.4-1.1,2.4-2.4S49.5,53.7,48.2,53.8L48.2,53.8z"/>
<path class="st0" d="M56,20.2c-1.3,0-2.4,1.1-2.4,2.4v33.5c0,1.3,1.1,2.4,2.4,2.4c1.3,0,2.4-1.1,2.4-2.4l0,0V22.6
	C58.4,21.3,57.3,20.2,56,20.2z"/>
<path class="st0" d="M95.3,20.2c-1.3,0-2.4,1.1-2.4,2.4l0,0v27.3L67.1,21.1c-0.9-1-2.4-1.1-3.4-0.2c-0.5,0.5-0.8,1.1-0.8,1.8v33.5
	c0,1.3,1.1,2.4,2.4,2.4c1.3,0,2.4-1.1,2.4-2.4V28.9l25.8,28.9c0.9,1,2.4,1.1,3.4,0.2c0.5-0.5,0.8-1.1,0.8-1.8V22.6
	C97.7,21.3,96.6,20.2,95.3,20.2z"/>
<path class="st0" d="M148.7,26.4c-1.4-0.4-1.8-0.6-1.8-1.2v0c0-0.5,0.5-0.9,1.2-0.9c0.6,0,1.2,0.2,1.7,0.6c0.1,0.1,0.2,0.1,0.4,0.1
	c0.3,0,0.6-0.3,0.6-0.6l0,0c0-0.2-0.1-0.4-0.3-0.5c-0.7-0.5-1.5-0.7-2.4-0.7c-1.5,0-2.6,0.9-2.6,2.2v0c0,1.4,0.9,1.9,2.5,2.3
	c1.4,0.3,1.7,0.6,1.7,1.2v0c0,0.6-0.5,0.9-1.3,0.9c-0.8,0-1.5-0.3-2.1-0.8c-0.3-0.2-0.6-0.2-0.9,0.1c-0.2,0.3-0.2,0.6,0.1,0.9
	c0,0,0,0,0.1,0c0.8,0.6,1.8,0.9,2.8,0.9c1.6,0,2.7-0.8,2.7-2.3v0C151.1,27.4,150.3,26.8,148.7,26.4z"/>
<path class="st0" d="M153.4,30.8h4.5c0.3,0,0.6-0.3,0.6-0.6c0-0.3-0.3-0.6-0.6-0.6h-3.8v-2h3.2c0.3,0,0.6-0.3,0.6-0.6
	c0-0.3-0.3-0.6-0.6-0.6h-3.2v-2h3.7c0.3,0,0.6-0.3,0.6-0.6l0,0c0-0.3-0.3-0.6-0.6-0.6h-4.4c-0.4,0-0.6,0.3-0.7,0.6c0,0,0,0,0,0v6.2
	C152.7,30.5,153,30.8,153.4,30.8L153.4,30.8z"/>
<path class="st0" d="M160.6,30.8h4.5c0.3,0,0.6-0.3,0.6-0.6l0,0c0-0.3-0.3-0.6-0.6-0.6h-3.8v-2h3.2c0.3,0,0.6-0.3,0.6-0.6
	c0-0.3-0.3-0.6-0.6-0.6h-3.2v-2h3.7c0.3,0,0.6-0.3,0.6-0.6l0,0c0-0.3-0.3-0.6-0.6-0.6h-4.4c-0.4,0-0.6,0.3-0.7,0.6c0,0,0,0,0,0v6.2
	C159.9,30.5,160.2,30.8,160.6,30.8L160.6,30.8z"/>
<path class="st0" d="M167.7,30.9c0.4,0,0.7-0.3,0.8-0.7c0,0,0,0,0-0.1V30c0-0.4-0.4-0.7-0.8-0.7c-0.4,0-0.7,0.3-0.7,0.7v0.1
	C166.9,30.5,167.2,30.9,167.7,30.9C167.6,30.9,167.7,30.9,167.7,30.9z"/>
<path class="st0" d="M148.7,39.2c-1.4-0.4-1.8-0.6-1.8-1.2v0c0-0.5,0.5-0.9,1.2-0.9c0.6,0,1.2,0.2,1.7,0.6c0.1,0.1,0.2,0.1,0.4,0.1
	c0.3,0,0.6-0.3,0.6-0.6l0,0c0-0.2-0.1-0.4-0.3-0.5c-0.7-0.5-1.5-0.7-2.4-0.7c-1.5,0-2.6,0.9-2.6,2.2v0c0,1.4,0.9,1.9,2.5,2.3
	c1.4,0.3,1.7,0.6,1.7,1.2v0c0,0.6-0.5,0.9-1.3,0.9c-0.8,0-1.5-0.3-2.1-0.8c-0.3-0.2-0.7-0.1-0.9,0.1c-0.1,0.1-0.1,0.2-0.1,0.3
	c0,0.2,0.1,0.4,0.3,0.5c0.8,0.6,1.8,0.9,2.8,0.9c1.6,0,2.7-0.8,2.7-2.3v0C151.1,40.2,150.3,39.6,148.7,39.2z"/>
<path class="st0" d="M156.3,35.9c-2.1,0-3.9,1.7-4,3.8c0,0,0,0.1,0,0.1v0c0,2.2,1.8,4,4,4c2.2,0,4-1.8,4-4v0c0-2.1-1.7-3.9-3.8-3.9
	C156.5,35.9,156.4,35.9,156.3,35.9z M158.9,39.8c0.1,1.4-1,2.6-2.4,2.7c0,0-0.1,0-0.1,0c-1.4,0-2.6-1.2-2.6-2.6c0,0,0-0.1,0-0.1v0
	c-0.1-1.4,1-2.6,2.4-2.7c0,0,0.1,0,0.1,0c1.4,0,2.6,1.2,2.6,2.6C158.9,39.7,158.9,39.8,158.9,39.8L158.9,39.8z"/>
<path class="st0" d="M163.2,36.6c0-0.4-0.4-0.6-0.7-0.6c-0.3,0-0.6,0.3-0.6,0.6v6.3c0,0.4,0.3,0.6,0.6,0.7c0,0,0,0,0,0h4.1
	c0.3,0,0.6-0.3,0.6-0.6c0-0.3-0.3-0.6-0.6-0.6h-3.4V36.6z"/>
<path class="st0" d="M169.6,43.2c0.1,0.3,0.4,0.5,0.8,0.5h0.1c0.4,0,0.6-0.2,0.8-0.5l2.7-6.3c0-0.1,0.1-0.2,0.1-0.3
	c0-0.4-0.3-0.6-0.6-0.6l0,0c-0.3,0-0.5,0.2-0.6,0.4l-2.2,5.5l-2.2-5.4c-0.1-0.3-0.4-0.5-0.7-0.5c-0.4,0-0.6,0.3-0.7,0.6l0,0
	c0,0.1,0,0.2,0.1,0.3L169.6,43.2z"/>
<path class="st0" d="M181,43c0-0.3-0.3-0.6-0.6-0.6h-3.8v-2h3.2c0.3,0,0.6-0.3,0.6-0.6c0-0.3-0.3-0.6-0.6-0.6h-3.2v-2h3.7
	c0.3,0,0.6-0.3,0.6-0.6l0,0c0-0.3-0.3-0.6-0.6-0.6H176c-0.4,0-0.6,0.3-0.7,0.6c0,0,0,0,0,0V43c0,0.4,0.3,0.6,0.6,0.7c0,0,0,0,0,0
	h4.5C180.8,43.6,181,43.3,181,43L181,43z"/>
<path class="st0" d="M183,42c-0.4,0-0.8,0.3-0.8,0.7v0v0.1c0,0.4,0.4,0.7,0.8,0.7c0.4,0,0.7-0.3,0.7-0.7v-0.1c0-0.4-0.3-0.7-0.7-0.8
	C183.1,42,183.1,42,183,42z"/>
<path class="st0" d="M148.7,52c-1.4-0.4-1.8-0.6-1.8-1.2v0c0-0.5,0.5-0.9,1.2-0.9c0.6,0,1.2,0.2,1.7,0.6c0.1,0.1,0.2,0.1,0.4,0.1
	c0.3,0,0.6-0.3,0.6-0.6l0,0c0-0.2-0.1-0.4-0.3-0.5c-0.7-0.5-1.5-0.7-2.4-0.7c-1.5,0-2.6,0.9-2.6,2.2v0c0,1.4,0.9,1.9,2.5,2.3
	c1.4,0.3,1.7,0.6,1.7,1.2v0c0,0.6-0.5,0.9-1.3,0.9c-0.8,0-1.5-0.3-2.1-0.8c-0.3-0.2-0.6-0.2-0.9,0.1c-0.2,0.3-0.2,0.6,0.1,0.9
	c0,0,0,0,0.1,0c0.8,0.6,1.8,0.9,2.8,0.9c1.6,0,2.7-0.8,2.7-2.3v0C151.1,52.9,150.3,52.3,148.7,52z"/>
<path class="st0" d="M158.3,48.7c-0.4,0-0.6,0.3-0.6,0.6l0,0v2.6h-3.6v-2.6c0-0.4-0.3-0.6-0.6-0.6c-0.4,0-0.6,0.3-0.6,0.6v6.3
	c0,0.4,0.3,0.6,0.6,0.6c0.4,0,0.6-0.3,0.6-0.6l0,0v-2.6h3.6v2.6c0,0.4,0.4,0.6,0.7,0.6c0.3,0,0.6-0.3,0.6-0.6v-6.3
	C159,49,158.7,48.7,158.3,48.7L158.3,48.7z"/>
<path class="st0" d="M164.9,49.2c-0.1-0.3-0.4-0.5-0.8-0.5h-0.1c-0.4,0-0.7,0.2-0.8,0.5l-2.8,6.3c0,0.1-0.1,0.2-0.1,0.3
	c0,0.3,0.3,0.6,0.6,0.6l0,0c0.3,0,0.5-0.2,0.6-0.4l0.6-1.4h3.7l0.6,1.4c0.1,0.3,0.4,0.5,0.6,0.5c0.4,0,0.6-0.3,0.6-0.6c0,0,0,0,0,0
	c0-0.1,0-0.2-0.1-0.3L164.9,49.2z M162.8,53.3l1.3-3.1l1.3,3.1H162.8z"/>
<path class="st0" d="M172.6,48.8h-2.7c-0.4,0-0.6,0.3-0.7,0.6c0,0,0,0,0,0v6.3c0,0.4,0.4,0.6,0.7,0.6c0.3,0,0.6-0.3,0.6-0.6v-2h1.7
	l1.8,2.3c0.1,0.2,0.4,0.4,0.6,0.4c0.4,0,0.6-0.3,0.6-0.6l0,0c0-0.2-0.1-0.4-0.2-0.5l-1.4-1.8c1-0.3,1.8-1.2,1.7-2.3v0
	c0-0.6-0.2-1.2-0.6-1.6C174.2,49,173.4,48.7,172.6,48.8z M174.1,51.3c0,0.8-0.6,1.3-1.5,1.3h-1.9V50h1.9
	C173.5,50,174.1,50.5,174.1,51.3L174.1,51.3z"/>
<path class="st0" d="M182.2,55.1h-3.8v-2h3.2c0.3,0,0.6-0.3,0.6-0.6c0-0.3-0.3-0.6-0.6-0.6h-3.2v-2h3.7c0.3,0,0.6-0.3,0.6-0.6l0,0
	c0-0.3-0.3-0.6-0.6-0.6h-4.4c-0.4,0-0.6,0.3-0.7,0.6c0,0,0,0,0,0v6.2c0,0.4,0.3,0.6,0.6,0.7c0,0,0,0,0,0h4.5c0.3,0,0.6-0.3,0.6-0.6
	l0,0C182.8,55.4,182.5,55.1,182.2,55.1z"/>
<path class="st0" d="M184.8,54.8c-0.4,0-0.8,0.3-0.8,0.7c0,0,0,0,0,0.1v0.1c0,0.4,0.3,0.8,0.8,0.8s0.8-0.3,0.8-0.8v-0.1
	C185.5,55.1,185.3,54.8,184.8,54.8C184.8,54.8,184.8,54.8,184.8,54.8z"/>
<path class="st0" d="M139.3,38.7c-0.3-10.7-9.2-19.1-19.9-18.8c-10.7,0.3-19.1,9.2-18.8,19.9c0.3,10.7,9.2,19.1,19.9,18.8
	c2.8-0.1,5.7-0.8,8.2-2.1l6.3,5c0.7,0.6,1.8,0.6,2.5,0.1l0,0c0.7-0.6,0.9-1.6,0.5-2.4c0,0-2.2-4.8-3.4-7.3
	C137.7,48.1,139.4,43.4,139.3,38.7z M120.4,53.7c-8,0.3-14.7-6.1-14.9-14.1c-0.2-8,6.1-14.7,14.1-14.9c8-0.3,14.7,6.1,14.9,14.1l0,0
	C134.7,46.8,128.4,53.5,120.4,53.7z"/>
</svg>
